<?xml version="1.0" encoding="utf-8"?>
<!-- Generator: Adobe Illustrator 18.0.0, SVG Export Plug-In . SVG Version: 6.00 Build 0)  -->
<!DOCTYPE svg PUBLIC "-//W3C//DTD SVG 1.1//EN" "http://www.w3.org/Graphics/SVG/1.1/DTD/svg11.dtd">
<svg version="1.1" id="Layer_1" xmlns="http://www.w3.org/2000/svg" xmlns:xlink="http://www.w3.org/1999/xlink" x="0px" y="0px"
	 viewBox="0 0 992.1 340.2" enable-background="new 0 0 992.1 340.2" xml:space="preserve">
<g>
	<polygon fill="#FFFFFF" points="89.8,196.3 89.8,76.8 153.5,76.8 153.5,92.9 108.8,92.9 108.8,126 150.8,126 150.8,142.1 
		108.8,142.1 108.8,196.3 	"/>
	<path fill="#FFFFFF" d="M157,196.3l24.9-119.4h51.6c2.8,0,5.4,0.1,7.9,0.3c2.5,0.2,5.7,0.9,9.6,2.1c3.9,1.2,7.2,2.8,9.9,4.8
		c2.7,2,5,5,7.1,9c2.1,4,3.1,8.8,3.1,14.2c0,18.3-9,29.1-27.1,32.5v0.3c8.5,3.2,12.7,10.4,12.7,21.6c0,2.6-0.3,6.6-1,12.2
		c-0.7,5.6-1,9.8-0.8,12.5c0,4.1,0.7,7.4,2.2,9.9h-21.9c-0.9-2.4-1.3-5.5-1.3-9.2c0-3,0.3-7.4,1-13.1c0.7-5.7,1-10.1,1-13
		c0-2.7-0.5-4.9-1.4-6.8c-0.9-1.8-2-3.2-3.2-4.1c-1.2-0.9-2.9-1.6-5.3-2.1c-2.3-0.5-4.3-0.8-5.8-0.8c-1.5-0.1-3.8-0.1-6.8-0.1h-24.9
		l-10.2,49.2H157z M199.5,93.9l-7.8,37.3h30.6c8.9,0,15.8-1.9,20.6-5.6c4.8-3.7,7.2-9.1,7.2-16.1c0-6-1.9-10.1-5.8-12.3
		c-3.8-2.2-9.1-3.3-15.6-3.3H199.5z"/>
	<path fill="#FFFFFF" d="M300.4,196.3h-36.6v-5.5h10.7l38.3-111.6h6l38,111.6h11.5v5.5H318v-5.5h19.9l-10.7-31.5h-35.5L281,190.8
		h19.4V196.3z M293.5,153.8h31.8l-15.9-47L293.5,153.8z"/>
	<polygon fill="#FFFFFF" points="375.5,173.3 410.8,103.9 378,103.9 378,76.8 448.8,76.8 448.8,99.6 412.2,169.2 448.4,169.2 
		448.4,196.3 375.5,196.3 	"/>
	<path fill="#FFFFFF" d="M542.5,87.9h-76.8v-8.7h76.8V87.9z M537.3,142.1h-71.6v-8.7h71.6V142.1z M543.5,196.3h-77.8v-8.7h77.8
		V196.3z"/>
	<polygon fill="#FFFFFF" points="565.9,196.3 565.9,76.8 582.9,76.8 645.7,173.6 646,173.6 646,76.8 661.1,76.8 661.1,196.3 
		643.7,196.3 581.2,100.4 580.9,100.4 580.9,196.3 	"/>
	<path fill="#FFFFFF" d="M835.2,76.2c-6.1,0.6-11.8,2.2-17.1,4.9c-5.2,2.7-10.2,6-14.9,9.9c11.2,10.4,16.7,23.3,16.7,38.8
		c0,11.2-2.3,21-6.9,29.5c-4.6,8.5-10.8,15.7-18.6,21.4c-7.8,5.7-16.7,10.1-26.8,13c-10.1,2.9-20.6,4.3-31.5,4.3
		c-5.1,0-10.5-0.4-16.1-1.2c-5.6-0.8-10.7-1.6-15.1-2.5c-2.5,0.3-5.2,0.8-8.3,1.3c-3.1,0.5-7,0.8-11.8,0.8c-4.7,0-7.9-0.5-9.8-1.6
		c-1.8-1.1-2.8-2.1-2.8-3.3c0-1.2,0.5-2.1,1.4-2.5c0.9-0.4,2.6-0.7,4.9-0.7c2.2,0,5.6,0.4,10.2,1.3c4.6,0.9,9.9,1.8,16.1,2.7
		c6.4-1.1,12-3.9,17-8.3c5-4.4,9.6-9.8,13.8-16.1c4.2-6.3,8.4-13.2,12.4-20.7c4-7.5,8.3-14.9,12.9-22.2c4.6-7.3,9.6-14.1,15.2-20.5
		c5.6-6.4,12-11.5,19.2-15.6c-4.5-3.9-9.8-6.8-16.1-8.7c-6.2-1.9-12.4-2.8-18.4-2.8c-8.8,0-17.3,1.5-25.3,4.3
		c-8.1,2.9-15.2,7-21.2,12.4c-6.1,5.4-10.9,11.8-14.6,19.3c-3.6,7.5-5.4,15.9-5.4,25.2c0,3,0.4,6,1.2,8.9c0.8,2.9,1.9,5.5,3.5,7.9
		c1.6,2.3,3.6,4.2,6.1,5.6c2.5,1.4,5.4,2.1,8.8,2.1c5.2,0,9.8-1.5,13.8-4.4c4-3,7.3-6.8,10-11.5c2.7-4.7,4.7-9.9,6.1-15.6
		c1.4-5.7,2.1-11.4,2.3-17h2c-0.3,9-1.7,16.9-4,23.5c-2.3,6.6-5.4,12.2-9.2,16.6c-3.8,4.4-8.1,7.7-12.9,9.9
		c-4.8,2.2-9.8,3.3-15.1,3.3c-4,0-7.6-0.8-10.8-2.3c-3.2-1.6-5.9-3.7-8.1-6.3c-2.2-2.6-4-5.6-5.2-9c-1.2-3.4-1.8-7-1.8-10.8
		c0-5.9,1.1-11.6,3.2-17.1c2.1-5.5,5-10.6,8.7-15.4c3.7-4.7,8-9,13-12.9c5-3.8,10.3-7.1,16-9.9c5.7-2.7,11.6-4.9,17.7-6.4
		c6.1-1.5,12.2-2.3,18.1-2.3c4.2,0,8.1,0.2,11.6,0.6c3.5,0.4,6.9,1,10.1,1.9c3.2,0.9,6.4,2.1,9.5,3.6c3.1,1.5,6.4,3.4,9.9,5.6
		c5.5-3.5,11.3-6.2,17.6-8.1c6.2-1.9,12.5-3.4,18.9-4.3V76.2z M806.6,117.3c0-4.2-0.4-8.4-1.3-12.5c-0.9-4.1-2.7-7.8-5.5-11
		c-6,6.5-11.1,13-15.3,19.7c-4.2,6.6-8,13.2-11.5,19.7c-3.5,6.5-6.9,12.7-10.5,18.7c-3.5,6-7.6,11.7-12.3,16.9
		c-4.7,5.2-10.3,9.9-16.9,14.1c-6.6,4.1-14.8,7.5-24.6,10.2v0.3c1.3,0.3,4.5,0.9,9.4,1.6c4.9,0.7,10.7,1.1,17.4,1.1
		c10.1,0.1,19.5-2.1,28.2-6.7c8.6-4.6,16.1-10.6,22.5-18.1c6.4-7.5,11.3-15.9,15-25.3C804.8,136.4,806.6,126.9,806.6,117.3"/>
	<path fill="#FFFFFF" d="M822.5,196.3l32.6-119.4h25.6l31.7,119.4h-18.5L886,167h-36.2l-7.4,29.3H822.5z M853.6,151.8h28.3
		l-13.7-58.9h-0.3L853.6,151.8z"/>
	<g>
		<path fill="#FFFFFF" d="M165.9,244.7h6.9l17.1,28h-6.6l-3.5-5.9h-21l-3.4,5.9h-6.6L165.9,244.7z M177.1,262l-7.7-13.3l-7.8,13.3
			H177.1z"/>
		<polygon fill="#FFFFFF" points="211.8,249.4 198.2,249.4 198.2,244.7 231.2,244.7 231.2,249.4 217.5,249.4 217.5,272.7 
			211.8,272.7 		"/>
		<polygon fill="#FFFFFF" points="247.3,244.7 273.8,244.7 273.8,249.4 253,249.4 253,256.2 273.4,256.2 273.4,260.7 253,260.7 
			253,267.9 273.8,267.9 273.8,272.7 247.3,272.7 		"/>
		<path fill="#FFFFFF" d="M290.5,273.3c-0.5,0-0.9,0-1.2,0l0.3-3.2l0.6,0c1.1,0,2-0.3,2.6-0.9c0.6-0.6,1-1.4,1.1-2.4l1.9-22.2h24.8
			v28h-5.7v-23.3H301l-1.4,17.1c-0.2,2.1-1.1,3.8-2.8,5C295,272.7,292.9,273.3,290.5,273.3"/>
		<path fill="#FFFFFF" d="M344.7,244.7v10.9H359c2.8,0,5.1,0.7,6.8,2.2c1.7,1.5,2.6,3.6,2.6,6.3c0,1.6-0.4,3-1.2,4.3
			c-0.8,1.3-1.9,2.3-3.3,3.1c-1.4,0.8-3.1,1.1-4.9,1.1h-20v-28H344.7z M344.6,268H358c1.7,0,2.9-0.3,3.6-0.9c0.7-0.6,1.1-1.6,1.1-3
			c0-1.4-0.4-2.3-1.1-2.9c-0.7-0.6-1.9-0.9-3.6-0.9h-13.4V268z"/>
		<polygon fill="#FFFFFF" points="385,244.7 411.4,244.7 411.4,249.4 390.7,249.4 390.7,256.2 411.1,256.2 411.1,260.7 390.7,260.7 
			390.7,267.9 411.4,267.9 411.4,272.7 385,272.7 		"/>
		<polygon fill="#FFFFFF" points="454.1,244.7 459.8,244.7 459.8,255.8 478.6,255.8 478.6,244.7 484.3,244.7 484.3,272.7 
			478.6,272.7 478.6,260.6 459.8,260.6 459.8,272.7 454.1,272.7 		"/>
		<path fill="#FFFFFF" d="M517.5,244.7h6.9l17.1,28h-6.6l-3.5-5.9h-21l-3.4,5.9h-6.6L517.5,244.7z M528.7,262l-7.7-13.3l-7.8,13.3
			H528.7z"/>
		<path fill="#FFFFFF" d="M570.8,273.3c-2.7,0-5.3-0.2-8-0.6c-2.7-0.4-4.9-1-6.5-1.7v-4.9c1.3,0.7,3.3,1.3,6,1.8
			c2.7,0.5,5.2,0.7,7.3,0.7c3.9,0,6.9-0.3,8.7-0.8c1.9-0.5,2.8-1.4,2.8-2.5c0-1-0.6-1.9-1.7-2.5c-1.2-0.6-3.1-1.1-5.7-1.4
			c-2.6-0.3-6.3-0.5-10.9-0.5v-4.3c4.6-0.2,8.2-0.5,10.7-0.8c2.5-0.3,4.2-0.7,5.3-1.2c1-0.5,1.5-1.2,1.5-2c0-2.5-3.6-3.7-10.8-3.7
			c-2,0-4.4,0.3-7.1,0.8c-2.7,0.5-4.8,1.1-6.1,1.8v-4.9c1.6-0.7,3.7-1.3,6.4-1.7c2.7-0.4,5.1-0.7,7.3-0.7c5,0,8.9,0.6,11.6,1.8
			c2.7,1.2,4.1,3.2,4.1,5.9c0,1.5-0.5,2.8-1.5,3.9c-1,1-2.2,1.8-3.5,2.3c-1.3,0.5-2.4,0.7-3.2,0.8c1.2,0,2.5,0.3,3.9,0.8
			c1.4,0.5,2.6,1.3,3.6,2.3c1,1.1,1.5,2.3,1.5,3.8C586.5,270.7,581.3,273.3,570.8,273.3"/>
		<path fill="#FFFFFF" d="M602.9,244.7h20.8c2.8,0,5,0.7,6.6,2c1.6,1.4,2.4,3.1,2.4,5.4c0,2-0.7,3.5-2,4.6c-1.4,1.1-3.3,1.6-5.7,1.8
			c2.7,0.1,4.8,0.7,6.4,1.8c1.5,1.2,2.3,2.8,2.3,5c0,1.5-0.4,2.8-1.1,3.9c-0.7,1.1-1.8,2-3.2,2.6c-1.4,0.6-3,0.9-4.7,0.9h-21.7
			V244.7z M622.3,256.5c3.2,0,4.7-1.1,4.7-3.4c0-2.4-1.6-3.6-4.7-3.6h-13.8l0,7H622.3z M623.2,267.9c3.1,0,4.7-1.3,4.7-3.8
			c0-2.4-1.6-3.6-4.7-3.6h-14.6l0,7.4H623.2z"/>
		<path fill="#FFFFFF" d="M665.2,244.7h6.9l17.1,28h-6.6l-3.5-5.9h-21l-3.4,5.9h-6.6L665.2,244.7z M676.3,262l-7.7-13.3l-7.8,13.3
			H676.3z"/>
		<polygon fill="#FFFFFF" points="705.3,244.7 711,244.7 711,255.8 729.9,255.8 729.9,244.7 735.6,244.7 735.6,272.7 729.9,272.7 
			729.9,260.6 711,260.6 711,272.7 705.3,272.7 		"/>
		<polygon fill="#FFFFFF" points="780.1,272.7 780.1,252.5 759.2,272.7 754,272.7 754,244.7 759.7,244.7 759.7,264.9 780.7,244.7 
			785.8,244.7 785.8,272.7 		"/>
		<path fill="#FFFFFF" d="M830.4,272.7v-20.2l-20.9,20.2h-5.2v-28h5.7v20.2l21-20.2h5.2v28H830.4z M820,242.6
			c-1.6,0-3.1-0.2-4.4-0.7c-1.3-0.5-2.3-1.2-3-2.1c-0.7-0.9-1.1-1.9-1.1-3.1h4.2c0,1.1,0.4,1.9,1.2,2.4c0.8,0.5,1.8,0.8,3.1,0.8
			c1.3,0,2.3-0.3,3.1-0.8c0.8-0.5,1.2-1.4,1.3-2.4h4.1c0,1.8-0.8,3.3-2.3,4.4C824.8,242.1,822.7,242.6,820,242.6"/>
	</g>
</g>
</svg>
